<svg xmlns="http://www.w3.org/2000/svg" xmlns:xlink="http://www.w3.org/1999/xlink" width="400" zoomAndPan="magnify" viewBox="0 0 300 74.999997" height="100" preserveAspectRatio="xMidYMid meet" version="1.0"><defs><g/></defs><g fill="currentColor" fill-opacity="1"><g transform="translate(21.655374, 56.762732)"><g><path d="M 10.859375 -7.640625 L 13.515625 -18.3125 L 7.34375 -18.3125 C 7.019531 -18.3125 6.660156 -18.441406 6.265625 -18.703125 C 6.097656 -18.960938 5.96875 -19.320312 5.875 -19.78125 C 5.875 -20.238281 6.035156 -20.578125 6.359375 -20.796875 C 6.722656 -20.992188 7.050781 -21.109375 7.34375 -21.140625 L 14.203125 -21.140625 L 16.796875 -31.53125 C 16.859375 -31.820312 17.050781 -32.113281 17.375 -32.40625 C 17.664062 -32.664062 18.054688 -32.75 18.546875 -32.65625 C 18.941406 -32.613281 19.253906 -32.382812 19.484375 -31.96875 C 19.648438 -31.738281 19.679688 -31.363281 19.578125 -30.84375 L 17.1875 -21.140625 L 24.421875 -21.140625 L 26.875 -31.375 C 26.9375 -31.664062 27.132812 -31.960938 27.46875 -32.265625 C 27.757812 -32.554688 28.132812 -32.632812 28.59375 -32.5 C 29.039062 -32.46875 29.347656 -32.253906 29.515625 -31.859375 C 29.710938 -31.597656 29.757812 -31.222656 29.65625 -30.734375 L 27.359375 -21.140625 L 33.484375 -21.140625 C 33.773438 -21.140625 34.101562 -21.023438 34.46875 -20.796875 C 34.757812 -20.671875 34.921875 -20.332031 34.953125 -19.78125 C 34.953125 -19.414062 34.820312 -19.054688 34.5625 -18.703125 C 34.332031 -18.535156 33.972656 -18.40625 33.484375 -18.3125 L 26.671875 -18.3125 L 24.1875 -7.640625 L 30.453125 -7.640625 C 30.742188 -7.640625 31.050781 -7.523438 31.375 -7.296875 C 31.738281 -7.160156 31.921875 -6.816406 31.921875 -6.265625 C 31.921875 -5.910156 31.769531 -5.550781 31.46875 -5.1875 C 31.238281 -5.019531 30.898438 -4.890625 30.453125 -4.796875 L 23.546875 -4.796875 L 21.203125 5.390625 C 21.160156 5.710938 20.945312 6.019531 20.5625 6.3125 C 20.332031 6.445312 19.957031 6.515625 19.4375 6.515625 C 19.070312 6.410156 18.757812 6.164062 18.5 5.78125 C 18.4375 5.382812 18.390625 5.039062 18.359375 4.75 L 20.5625 -4.796875 L 13.125 -4.796875 L 10.671875 5.390625 C 10.640625 5.710938 10.425781 6.035156 10.03125 6.359375 C 9.800781 6.492188 9.425781 6.546875 8.90625 6.515625 C 8.550781 6.410156 8.242188 6.148438 7.984375 5.734375 C 7.953125 5.335938 7.914062 4.992188 7.875 4.703125 L 10.1875 -4.796875 L 4.40625 -4.796875 C 4.082031 -4.796875 3.738281 -4.925781 3.375 -5.1875 C 3.144531 -5.445312 3 -5.804688 2.9375 -6.265625 C 2.9375 -6.722656 3.113281 -7.066406 3.46875 -7.296875 C 3.769531 -7.492188 4.082031 -7.609375 4.40625 -7.640625 Z M 16.453125 -18.3125 L 13.796875 -7.640625 L 21.25 -7.640625 L 23.734375 -18.3125 Z M 16.453125 -18.3125 "/></g></g></g><g fill="currentColor" fill-opacity="1"><g transform="translate(59.53987, 56.762732)"><g><path d="M 6.359375 2.203125 C 4.171875 -0.335938 3.03125 -3.878906 2.9375 -8.421875 C 2.9375 -12.722656 4.03125 -16.25 6.21875 -19 C 8.4375 -21.632812 11.601562 -22.96875 15.71875 -23 C 17.675781 -23 19.40625 -22.707031 20.90625 -22.125 C 22.375 -21.601562 23.484375 -20.914062 24.234375 -20.0625 C 24.492188 -20 24.6875 -19.707031 24.8125 -19.1875 C 24.976562 -18.863281 24.929688 -18.488281 24.671875 -18.0625 C 24.535156 -17.738281 24.222656 -17.507812 23.734375 -17.375 C 23.410156 -17.375 23.050781 -17.472656 22.65625 -17.671875 C 21.75 -18.515625 20.675781 -19.148438 19.4375 -19.578125 C 18.320312 -19.972656 17.082031 -20.171875 15.71875 -20.171875 C 12.550781 -20.171875 10.085938 -19.175781 8.328125 -17.1875 C 6.722656 -15.257812 5.875 -12.335938 5.78125 -8.421875 C 5.78125 -4.765625 6.660156 -1.875 8.421875 0.25 C 10.179688 2.132812 12.613281 3.128906 15.71875 3.234375 C 16.957031 3.234375 18.160156 3.003906 19.328125 2.546875 C 20.503906 2.148438 21.597656 1.5625 22.609375 0.78125 C 22.867188 0.613281 23.210938 0.53125 23.640625 0.53125 C 24.035156 0.53125 24.378906 0.726562 24.671875 1.125 C 24.929688 1.445312 25.015625 1.820312 24.921875 2.25 C 24.878906 2.570312 24.648438 2.882812 24.234375 3.1875 C 23.222656 3.9375 21.945312 4.617188 20.40625 5.234375 C 19.070312 5.691406 17.507812 5.96875 15.71875 6.0625 C 11.863281 6.0625 8.742188 4.773438 6.359375 2.203125 Z M 6.359375 2.203125 "/></g></g></g><g fill="currentColor" fill-opacity="1"><g transform="translate(87.537197, 56.762732)"><g><path d="M 6.21875 2.203125 C 4.125 -0.335938 3.03125 -3.894531 2.9375 -8.46875 C 2.9375 -12.875 4.015625 -16.398438 6.171875 -19.046875 C 8.328125 -21.585938 11.195312 -22.875 14.78125 -22.90625 C 18.5 -22.90625 21.4375 -21.617188 23.59375 -19.046875 C 25.75 -16.523438 26.828125 -13.03125 26.828125 -8.5625 C 26.828125 -3.894531 25.734375 -0.273438 23.546875 2.296875 C 21.453125 4.710938 18.546875 5.96875 14.828125 6.0625 C 11.367188 6.0625 8.5 4.773438 6.21875 2.203125 Z M 5.78125 -8.46875 C 5.78125 -4.519531 6.578125 -1.566406 8.171875 0.390625 C 9.835938 2.179688 12.054688 3.128906 14.828125 3.234375 C 17.671875 3.234375 19.90625 2.316406 21.53125 0.484375 C 23.164062 -1.273438 23.984375 -4.289062 23.984375 -8.5625 C 23.984375 -12.351562 23.1875 -15.226562 21.59375 -17.1875 C 20.082031 -19.101562 17.8125 -20.0625 14.78125 -20.0625 C 11.875 -20.0625 9.625 -19.101562 8.03125 -17.1875 C 6.625 -15.289062 5.875 -12.382812 5.78125 -8.46875 Z M 5.78125 -8.46875 "/></g></g></g><g fill="currentColor" fill-opacity="1"><g transform="translate(117.296594, 56.762732)"><g><path d="M 21.984375 3.71875 C 19.992188 5.21875 17.234375 6 13.703125 6.0625 C 11.773438 6.0625 9.882812 5.769531 8.03125 5.1875 C 6.394531 4.601562 4.957031 3.867188 3.71875 2.984375 C 3.457031 2.785156 3.226562 2.492188 3.03125 2.109375 C 3 1.710938 3.082031 1.335938 3.28125 0.984375 C 3.539062 0.585938 3.882812 0.375 4.3125 0.34375 C 4.695312 0.34375 5.019531 0.425781 5.28125 0.59375 C 6.257812 1.238281 7.367188 1.859375 8.609375 2.453125 C 9.890625 2.867188 11.585938 3.128906 13.703125 3.234375 C 16.546875 3.234375 18.703125 2.726562 20.171875 1.71875 C 21.535156 0.738281 22.234375 -0.535156 22.265625 -2.109375 C 22.265625 -3.273438 21.644531 -4.300781 20.40625 -5.1875 C 19.269531 -6.070312 17.085938 -6.820312 13.859375 -7.4375 C 10.847656 -7.988281 8.332031 -8.753906 6.3125 -9.734375 C 4.519531 -10.679688 3.570312 -12.460938 3.46875 -15.078125 C 3.46875 -17.328125 4.445312 -19.234375 6.40625 -20.796875 C 8.363281 -22.335938 11.09375 -23.109375 14.59375 -23.109375 C 16.507812 -23.109375 18.1875 -22.863281 19.625 -22.375 C 21.0625 -21.945312 22.316406 -21.195312 23.390625 -20.125 C 23.585938 -20.050781 23.785156 -19.769531 23.984375 -19.28125 C 24.078125 -18.957031 24.015625 -18.566406 23.796875 -18.109375 C 23.566406 -17.847656 23.238281 -17.632812 22.8125 -17.46875 C 22.488281 -17.46875 22.128906 -17.582031 21.734375 -17.8125 C 20.785156 -18.695312 19.691406 -19.335938 18.453125 -19.734375 C 17.441406 -20.085938 16.15625 -20.265625 14.59375 -20.265625 C 11.71875 -20.265625 9.59375 -19.773438 8.21875 -18.796875 C 7.007812 -17.878906 6.375 -16.640625 6.3125 -15.078125 C 6.3125 -13.378906 7.273438 -12.203125 9.203125 -11.546875 C 11.128906 -11.023438 13.578125 -10.40625 16.546875 -9.6875 C 19.484375 -9.132812 21.65625 -8.207031 23.0625 -6.90625 C 24.425781 -5.789062 25.109375 -4.191406 25.109375 -2.109375 C 25.109375 0.109375 24.066406 2.050781 21.984375 3.71875 Z M 21.984375 3.71875 "/></g></g></g><g fill="currentColor" fill-opacity="1"><g transform="translate(145.342868, 56.762732)"><g><path d="M 2.453125 5.09375 L 2.453125 -21.296875 C 2.453125 -21.585938 2.566406 -21.910156 2.796875 -22.265625 C 2.984375 -22.566406 3.320312 -22.734375 3.8125 -22.765625 C 4.269531 -22.765625 4.628906 -22.632812 4.890625 -22.375 C 5.148438 -22.144531 5.28125 -21.785156 5.28125 -21.296875 L 5.28125 -18.203125 C 6.457031 -19.378906 7.695312 -20.378906 9 -21.203125 C 10.863281 -22.367188 12.707031 -22.96875 14.53125 -23 C 16.945312 -23 18.828125 -21.988281 20.171875 -19.96875 C 20.660156 -19.351562 21.066406 -18.539062 21.390625 -17.53125 C 21.972656 -18.507812 23.035156 -19.550781 24.578125 -20.65625 C 26.828125 -22.21875 29.046875 -23 31.234375 -23 C 33.773438 -23 35.679688 -22.070312 36.953125 -20.21875 C 38.222656 -18.425781 38.859375 -15.765625 38.859375 -12.234375 L 38.859375 5.09375 C 38.859375 5.414062 38.726562 5.757812 38.46875 6.125 C 38.3125 6.351562 37.953125 6.5 37.390625 6.5625 C 37.035156 6.5625 36.695312 6.378906 36.375 6.015625 C 36.238281 5.722656 36.125 5.414062 36.03125 5.09375 L 36.03125 -12.234375 C 36.03125 -14.785156 35.585938 -16.742188 34.703125 -18.109375 C 33.890625 -19.484375 32.472656 -20.171875 30.453125 -20.171875 C 28.910156 -20.171875 27.046875 -19.453125 24.859375 -18.015625 C 23.722656 -17.265625 22.75 -16.367188 21.9375 -15.328125 C 22.125 -14.472656 22.21875 -13.441406 22.21875 -12.234375 L 22.21875 5.09375 C 22.21875 5.414062 22.085938 5.757812 21.828125 6.125 C 21.671875 6.351562 21.3125 6.5 20.75 6.5625 C 20.394531 6.5625 20.054688 6.378906 19.734375 6.015625 C 19.597656 5.722656 19.484375 5.414062 19.390625 5.09375 L 19.390625 -12.234375 C 19.390625 -15.367188 18.832031 -17.488281 17.71875 -18.59375 C 16.707031 -19.644531 15.304688 -20.171875 13.515625 -20.171875 C 12.367188 -20.171875 10.734375 -19.550781 8.609375 -18.3125 C 7.398438 -17.65625 6.289062 -16.789062 5.28125 -15.71875 L 5.28125 5.09375 C 5.28125 5.414062 5.148438 5.757812 4.890625 6.125 C 4.734375 6.351562 4.375 6.5 3.8125 6.5625 C 3.457031 6.5625 3.117188 6.378906 2.796875 6.015625 C 2.660156 5.722656 2.546875 5.414062 2.453125 5.09375 Z M 2.453125 5.09375 "/></g></g></g><g fill="currentColor" fill-opacity="1"><g transform="translate(186.65361, 56.762732)"><g><path d="M 23.15625 -7.734375 L 4.796875 -7.734375 C 4.859375 -4.078125 5.722656 -1.335938 7.390625 0.484375 C 9.148438 2.210938 11.597656 3.128906 14.734375 3.234375 C 16.554688 3.234375 18.140625 2.972656 19.484375 2.453125 C 20.847656 1.960938 22.003906 1.289062 22.953125 0.4375 C 23.148438 0.28125 23.476562 0.203125 23.9375 0.203125 C 24.332031 0.203125 24.675781 0.410156 24.96875 0.828125 C 25.226562 1.085938 25.304688 1.460938 25.203125 1.953125 C 25.171875 2.210938 24.945312 2.507812 24.53125 2.84375 C 23.414062 3.851562 21.925781 4.648438 20.0625 5.234375 C 18.375 5.691406 16.597656 5.96875 14.734375 6.0625 C 10.785156 6.0625 7.632812 4.789062 5.28125 2.25 C 3.164062 -0.257812 2.054688 -3.75 1.953125 -8.21875 C 1.953125 -12.726562 2.945312 -16.335938 4.9375 -19.046875 C 6.96875 -21.753906 9.890625 -23.109375 13.703125 -23.109375 C 17.910156 -23.109375 20.878906 -21.882812 22.609375 -19.4375 C 24.335938 -17.050781 25.203125 -13.835938 25.203125 -9.796875 C 25.203125 -8.484375 24.519531 -7.796875 23.15625 -7.734375 Z M 4.84375 -10.578125 L 22.21875 -10.578125 C 22.21875 -13.671875 21.582031 -16.066406 20.3125 -17.765625 C 19.164062 -19.429688 16.960938 -20.265625 13.703125 -20.265625 C 10.734375 -20.265625 8.484375 -19.253906 6.953125 -17.234375 C 5.910156 -15.734375 5.207031 -13.515625 4.84375 -10.578125 Z M 4.84375 -10.578125 "/></g></g></g><g fill="currentColor" fill-opacity="1"><g transform="translate(213.965677, 56.762732)"><g><path d="M 2.453125 11.59375 L 2.453125 -21.53125 C 2.453125 -21.832031 2.566406 -22.144531 2.796875 -22.46875 C 2.984375 -22.820312 3.320312 -23 3.8125 -23 C 4.269531 -23 4.628906 -22.851562 4.890625 -22.5625 C 5.148438 -22.332031 5.28125 -21.988281 5.28125 -21.53125 L 5.28125 -19.328125 C 6.257812 -20.117188 7.535156 -20.890625 9.109375 -21.640625 C 11.222656 -22.710938 13.570312 -23.234375 16.15625 -23.203125 C 19.09375 -23.203125 21.503906 -22.046875 23.390625 -19.734375 C 25.253906 -17.503906 26.203125 -14.109375 26.234375 -9.546875 C 26.234375 -5.003906 25.140625 -1.476562 22.953125 1.03125 C 20.867188 3.40625 18.0625 4.660156 14.53125 4.796875 C 11.957031 4.796875 9.804688 4.335938 8.078125 3.421875 C 7.066406 2.835938 6.132812 2.234375 5.28125 1.609375 L 5.28125 11.59375 C 5.28125 11.925781 5.148438 12.285156 4.890625 12.671875 C 4.734375 12.835938 4.375 12.96875 3.8125 13.0625 C 3.457031 13.0625 3.117188 12.898438 2.796875 12.578125 C 2.660156 12.222656 2.546875 11.894531 2.453125 11.59375 Z M 5.28125 -16.453125 L 5.28125 -1.078125 C 5.96875 -0.554688 6.816406 0.015625 7.828125 0.640625 C 9.398438 1.453125 11.328125 1.890625 13.609375 1.953125 C 16.804688 1.953125 19.238281 0.972656 20.90625 -0.984375 C 22.5625 -2.941406 23.390625 -5.796875 23.390625 -9.546875 C 23.390625 -13.328125 22.640625 -16.082031 21.140625 -17.8125 C 19.742188 -19.476562 17.820312 -20.328125 15.375 -20.359375 C 13.34375 -20.359375 11.1875 -19.789062 8.90625 -18.65625 C 7.46875 -17.9375 6.257812 -17.203125 5.28125 -16.453125 Z M 5.28125 -16.453125 "/></g></g></g><g fill="currentColor" fill-opacity="1"><g transform="translate(242.011962, 56.762732)"><g><path d="M 3.625 -32.109375 C 4.082031 -32.566406 4.671875 -32.796875 5.390625 -32.796875 C 5.972656 -32.796875 6.523438 -32.566406 7.046875 -32.109375 C 7.535156 -31.679688 7.796875 -31.09375 7.828125 -30.34375 C 7.828125 -29.789062 7.582031 -29.222656 7.09375 -28.640625 C 6.675781 -28.210938 6.109375 -27.96875 5.390625 -27.90625 C 4.765625 -27.90625 4.175781 -28.148438 3.625 -28.640625 C 3.257812 -29.097656 3.03125 -29.664062 2.9375 -30.34375 C 2.9375 -31.03125 3.164062 -31.617188 3.625 -32.109375 Z M 4.015625 5.09375 L 4.015625 -21.25 C 4.015625 -21.539062 4.128906 -21.863281 4.359375 -22.21875 C 4.554688 -22.507812 4.898438 -22.675781 5.390625 -22.71875 C 5.835938 -22.71875 6.195312 -22.585938 6.46875 -22.328125 C 6.726562 -22.097656 6.859375 -21.738281 6.859375 -21.25 L 6.859375 5.09375 C 6.859375 5.414062 6.726562 5.757812 6.46875 6.125 C 6.300781 6.351562 5.941406 6.5 5.390625 6.5625 C 5.023438 6.5625 4.679688 6.378906 4.359375 6.015625 C 4.222656 5.722656 4.109375 5.414062 4.015625 5.09375 Z M 4.015625 5.09375 "/></g></g></g><g fill="currentColor" fill-opacity="1"><g transform="translate(252.780165, 56.762732)"><g><path d="M 2.453125 5.046875 L 2.453125 -31.328125 C 2.453125 -31.617188 2.566406 -31.945312 2.796875 -32.3125 C 2.984375 -32.601562 3.320312 -32.765625 3.8125 -32.796875 C 4.269531 -32.796875 4.628906 -32.648438 4.890625 -32.359375 C 5.148438 -32.191406 5.28125 -31.847656 5.28125 -31.328125 L 5.28125 -7.4375 L 20.90625 -23.15625 C 21.101562 -23.351562 21.410156 -23.484375 21.828125 -23.546875 C 22.222656 -23.609375 22.597656 -23.476562 22.953125 -23.15625 C 23.242188 -22.925781 23.390625 -22.566406 23.390625 -22.078125 C 23.390625 -21.816406 23.226562 -21.488281 22.90625 -21.09375 L 11.453125 -9.796875 L 23.6875 4.109375 C 23.945312 4.335938 24.078125 4.679688 24.078125 5.140625 C 24.078125 5.460938 23.898438 5.804688 23.546875 6.171875 C 23.316406 6.398438 22.941406 6.5 22.421875 6.46875 C 22.097656 6.363281 21.785156 6.195312 21.484375 5.96875 L 9.59375 -7.9375 L 5.28125 -3.671875 L 5.28125 5.046875 C 5.28125 5.367188 5.148438 5.707031 4.890625 6.0625 C 4.734375 6.289062 4.375 6.441406 3.8125 6.515625 C 3.457031 6.515625 3.117188 6.332031 2.796875 5.96875 C 2.660156 5.675781 2.546875 5.367188 2.453125 5.046875 Z M 2.453125 5.046875 "/></g></g></g></svg>
